<?xml version="1.0" encoding="utf-8"?>
<svg version="1.1" width="193" height="52" style="" xmlns="http://www.w3.org/2000/svg">
  <path fill="#ffffff" d="M 8.507 34.498 L 8.507 10.654 L 4.695 10.654 L 3.692 15.473 L 0 15.473 L 0 4.566 L 23.275 4.566 L 23.275 15.473 L 19.541 15.473 L 18.54 10.654 L 14.728 10.654 L 14.728 34.498 L 18.54 36.02 L 18.54 40.332 L 4.695 40.332 L 4.695 36.02 L 8.507 34.498 Z M 36.297 12.937 L 36.658 16.437 C 36.658 16.437 39.547 12.429 42.235 12.429 C 44.443 12.429 45.967 13.342 45.967 13.342 L 45.648 23.083 L 42.036 23.083 L 41.433 18.771 C 39.106 18.771 37.099 21.612 37.099 21.612 L 37.099 35.005 L 41.112 36.273 L 41.112 40.332 L 27.87 40.332 L 27.87 36.273 L 31.081 35.005 L 31.081 18.517 L 27.87 17.249 L 27.87 13.19 L 36.297 12.937 Z M 52.849 4.566 C 52.849 1.674 54.494 0 56.299 0 C 58.386 0 59.67 1.37 59.67 4.566 C 59.67 7.559 57.945 9.182 56.299 9.182 C 54.133 9.182 52.849 7.559 52.849 4.566 Z M 59.59 35.005 L 62.399 36.273 L 62.399 40.332 L 50.36 40.332 L 50.36 36.273 L 53.571 35.005 L 53.571 18.517 L 50.36 17.249 L 50.36 13.19 L 59.59 12.937 L 59.59 35.005 Z M 67.196 13.19 L 75.744 12.937 L 76.104 15.778 C 76.104 15.778 78.832 12.429 82.043 12.429 C 87.62 12.429 90.389 17.655 90.389 25.873 C 90.389 35.259 86.858 40.839 79.837 40.839 C 78.672 40.839 77.47 40.636 76.425 40.332 L 76.425 46.775 L 80.238 47.941 L 80.238 52 L 67.275 52 L 67.275 47.941 L 70.407 46.775 L 70.407 18.517 L 67.196 17.249 L 67.196 13.19 Z M 76.425 21.307 L 76.425 34.244 C 77.067 34.599 78.03 35.005 79.556 35.005 C 83.007 35.005 84.17 31.961 84.17 26.786 C 84.17 21.662 83.086 18.517 80.157 18.517 C 77.549 18.517 76.425 21.307 76.425 21.307 Z M 113.927 19.024 L 113.927 24.605 L 105.821 24.605 L 105.821 34.244 L 113.003 34.244 L 113.927 30.084 L 117.539 30.084 L 117.539 40.332 L 96.592 40.332 L 96.592 36.02 L 99.601 34.498 L 99.601 10.654 L 96.592 9.132 L 96.592 4.82 L 105.821 4.566 L 117.056 4.566 L 117.056 14.357 L 113.444 14.357 L 112.442 10.654 L 105.821 10.654 L 105.821 19.024 L 113.927 19.024 Z M 137.621 40.332 L 136.899 37.034 C 136.899 37.034 133.809 40.839 130.396 40.839 C 126.505 40.839 124.137 37.947 124.137 32.874 C 124.137 26.888 127.709 24.503 133.809 24.503 L 136.617 24.503 L 136.617 21.713 C 136.617 19.126 135.534 18.01 133.528 18.01 C 131.481 18.01 129.995 18.771 129.995 18.771 L 129.395 21.967 L 125.783 21.967 L 125.502 14.459 C 125.502 14.459 130.357 12.429 134.21 12.429 C 140.309 12.429 142.635 15.118 142.635 22.474 L 142.635 35.005 L 145.647 35.918 L 145.647 39.977 L 137.621 40.332 Z M 136.617 28.816 L 134.331 28.816 C 131.2 28.816 129.956 29.83 129.956 32.113 C 129.956 34.041 130.799 35.157 132.323 35.157 C 134.449 35.157 136.617 32.215 136.617 32.215 L 136.617 28.816 Z M 154.576 31.454 L 154.896 34.751 C 154.896 34.751 156.302 35.259 158.268 35.259 C 160.475 35.259 161.558 34.396 161.558 32.773 C 161.558 28.613 150.843 30.135 150.843 21.104 C 150.843 14.763 154.858 12.429 159.11 12.429 C 162.722 12.429 166.574 13.951 166.574 13.951 L 166.414 21.561 L 163.002 21.561 L 162.401 18.517 C 162.401 18.517 161.237 18.01 159.631 18.01 C 157.906 18.01 156.864 18.923 156.864 20.597 C 156.864 24.706 167.577 22.931 167.577 31.707 C 167.577 37.541 163.845 40.839 158.348 40.839 C 154.536 40.839 150.964 39.723 150.964 39.723 L 150.964 31.454 L 154.576 31.454 Z M 192.759 28.308 L 179.437 28.308 C 179.678 32.367 181.523 34.751 184.292 34.751 C 187.623 34.751 191.033 32.367 191.033 32.367 L 192.759 36.578 C 192.759 36.578 188.746 40.839 183.61 40.839 C 176.708 40.839 173.176 35.766 173.176 27.141 C 173.176 18.263 177.149 12.429 183.891 12.429 C 189.869 12.429 193 17.097 193 24.351 C 193 26.279 192.759 28.156 192.759 28.308 Z M 179.517 23.59 L 186.781 23.59 C 186.781 20.699 185.816 18.517 183.49 18.517 C 181.242 18.517 179.838 20.597 179.517 23.59 Z"/>
  <path fill="#" d=""/>
</svg>